<svg width="20" height="21" viewBox="0 0 20 21" fill="none" xmlns="http://www.w3.org/2000/svg">
<path d="M6.41667 9.45H4.27778V11.55H6.41667V9.45ZM10.6944 9.45H8.55556V11.55H10.6944V9.45ZM14.9722 9.45H12.8333V11.55H14.9722V9.45ZM17.1111 2.1H16.0417V0H13.9028V2.1H5.34722V0H3.20833V2.1H2.13889C1.57162 2.1 1.02759 2.32125 0.626466 2.71508C0.225346 3.1089 0 3.64305 0 4.2V18.9C0 19.457 0.225346 19.9911 0.626466 20.3849C1.02759 20.7787 1.57162 21 2.13889 21H17.1111C17.6784 21 18.2224 20.7787 18.6235 20.3849C19.0247 19.9911 19.25 19.457 19.25 18.9V4.2C19.25 3.64305 19.0247 3.1089 18.6235 2.71508C18.2224 2.32125 17.6784 2.1 17.1111 2.1ZM17.1111 18.9H2.13889V7.35H17.1111V18.9Z" fill="white"/>
</svg>
