<svg width="27" height="26" viewBox="0 0 27 26" fill="none" xmlns="http://www.w3.org/2000/svg">
<path d="M13.5743 18.3327C14.9888 18.3327 16.3453 17.7708 17.3455 16.7706C18.3457 15.7704 18.9076 14.4138 18.9076 12.9993C18.9076 11.5849 18.3457 10.2283 17.3455 9.22811C16.3453 8.22792 14.9888 7.66602 13.5743 7.66602C12.1598 7.66602 10.8033 8.22792 9.80306 9.22811C8.80287 10.2283 8.24097 11.5849 8.24097 12.9993C8.24097 14.4138 8.80287 15.7704 9.80306 16.7706C10.8033 17.7708 12.1598 18.3327 13.5743 18.3327Z" stroke="#FAFAFA" stroke-width="1.5" stroke-linecap="round" stroke-linejoin="round"/>
<path d="M1.57434 18.3333V7.66667C1.57434 5.89856 2.27672 4.20286 3.52696 2.95262C4.7772 1.70238 6.4729 1 8.24101 1H18.9077C20.6758 1 22.3715 1.70238 23.6217 2.95262C24.872 4.20286 25.5743 5.89856 25.5743 7.66667V18.3333C25.5743 20.1014 24.872 21.7971 23.6217 23.0474C22.3715 24.2976 20.6758 25 18.9077 25H8.24101C6.4729 25 4.7772 24.2976 3.52696 23.0474C2.27672 21.7971 1.57434 20.1014 1.57434 18.3333Z" stroke="#FAFAFA" stroke-width="1.5"/>
<path d="M20.9077 5.68068L20.921 5.66602" stroke="#FAFAFA" stroke-width="1.5" stroke-linecap="round" stroke-linejoin="round"/>
</svg>
