<svg width="24" height="25" viewBox="0 0 24 25" fill="none" xmlns="http://www.w3.org/2000/svg">
<path d="M12 1.5918C9.81276 1.59438 7.71584 2.4644 6.16923 4.01102C4.62261 5.55763 3.75259 7.65455 3.75001 9.8418C3.74739 11.6292 4.33124 13.3681 5.41201 14.7918C5.41201 14.7918 5.63701 15.088 5.67376 15.1308L12 22.5918L18.3293 15.127C18.3623 15.0873 18.588 14.7918 18.588 14.7918L18.5888 14.7895C19.669 13.3665 20.2526 11.6284 20.25 9.8418C20.2474 7.65455 19.3774 5.55763 17.8308 4.01102C16.2842 2.4644 14.1873 1.59438 12 1.5918ZM12 12.8418C11.4067 12.8418 10.8266 12.6658 10.3333 12.3362C9.83995 12.0066 9.45543 11.538 9.22837 10.9898C9.00131 10.4417 8.9419 9.83847 9.05765 9.25653C9.17341 8.67458 9.45913 8.14003 9.87869 7.72048C10.2982 7.30092 10.8328 7.0152 11.4147 6.89944C11.9967 6.78369 12.5999 6.8431 13.1481 7.07016C13.6962 7.29722 14.1648 7.68174 14.4944 8.17509C14.8241 8.66843 15 9.24845 15 9.8418C14.999 10.6371 14.6826 11.3996 14.1202 11.962C13.5578 12.5244 12.7954 12.8408 12 12.8418Z" fill="#FAFAFA"/>
</svg>
