<svg width="161" height="184" viewBox="0 0 161 184" fill="none" xmlns="http://www.w3.org/2000/svg">
<path d="M19 65L21.2451 71.9098H28.5106L22.6327 76.1803L24.8779 83.0902L19 78.8197L13.1221 83.0902L15.3673 76.1803L9.48944 71.9098H16.7549L19 65Z" fill="#57546F"/>
<path d="M69 40L71.2451 46.9098H78.5106L72.6327 51.1803L74.8779 58.0902L69 53.8197L63.1221 58.0902L65.3673 51.1803L59.4894 46.9098H66.7549L69 40Z" fill="#57546F"/>
<path d="M64 99L67.3677 109.365H78.2658L69.4491 115.771L72.8168 126.135L64 119.729L55.1832 126.135L58.5509 115.771L49.7342 109.365H60.6323L64 99Z" fill="#57546F"/>
<path d="M125 114L128.368 124.365H139.266L130.449 130.771L133.817 141.135L125 134.729L116.183 141.135L119.551 130.771L110.734 124.365H121.632L125 114Z" fill="#57546F"/>
</svg>
