<svg width="17" height="34" viewBox="0 0 17 34" fill="none" xmlns="http://www.w3.org/2000/svg">
<g opacity="0.7">
<path d="M2.125 13.4576H14.875C15.0041 13.4572 15.1306 13.4216 15.241 13.3546C15.3513 13.2877 15.4413 13.1919 15.5013 13.0776C15.5613 12.9632 15.5889 12.8347 15.5813 12.7059C15.5736 12.577 15.531 12.4527 15.458 12.3462L9.08296 3.13791C8.81875 2.75611 8.18267 2.75611 7.91775 3.13791L1.54275 12.3462C1.46896 12.4524 1.42569 12.5769 1.41763 12.7059C1.40958 12.835 1.43705 12.9638 1.49707 13.0784C1.55709 13.1929 1.64735 13.2889 1.75806 13.3557C1.86876 13.4226 1.99567 13.4578 2.125 13.4576Z" fill="#F8F8F8"/>
<path d="M14.875 20.5424H2.125C1.99591 20.5428 1.86938 20.5784 1.75902 20.6454C1.64866 20.7123 1.55866 20.8081 1.49869 20.9224C1.43873 21.0368 1.41108 21.1653 1.41872 21.2941C1.42636 21.423 1.46899 21.5473 1.54204 21.6538L7.91704 30.8621C8.18125 31.2439 8.81733 31.2439 9.08225 30.8621L15.4573 21.6538C15.531 21.5476 15.5743 21.4231 15.5824 21.2941C15.5904 21.165 15.5629 21.0362 15.5029 20.9216C15.4429 20.8071 15.3526 20.7111 15.2419 20.6443C15.1312 20.5774 15.0043 20.5422 14.875 20.5424ZM8.5 29.2145L3.4765 21.9591H13.5235L8.5 29.2145Z" fill="#F8F8F8"/>
</g>
</svg>
